<mxfile host="app.diagrams.net" agent="Mozilla/5.0 (Windows NT 10.0; Win64; x64; rv:135.0) Gecko/20100101 Firefox/135.0" version="26.0.11">
  <diagram name="PÃ¡gina-1" id="-9mYL60vFsmbXJY5VwqQ">
    <mxGraphModel dx="1004" dy="676" grid="1" gridSize="10" guides="1" tooltips="1" connect="1" arrows="1" fold="1" page="1" pageScale="1" pageWidth="827" pageHeight="1169" math="0" shadow="0">
      <root>
        <mxCell id="0" />
        <mxCell id="1" parent="0" />
        <mxCell id="pIoMoX_XAeHMWqrU3urw-7" style="edgeStyle=orthogonalEdgeStyle;rounded=0;orthogonalLoop=1;jettySize=auto;html=1;exitX=1;exitY=0.5;exitDx=0;exitDy=0;entryX=0;entryY=0.5;entryDx=0;entryDy=0;" edge="1" parent="1" source="pIoMoX_XAeHMWqrU3urw-1" target="pIoMoX_XAeHMWqrU3urw-2">
          <mxGeometry relative="1" as="geometry">
            <mxPoint x="370" y="410" as="targetPoint" />
          </mxGeometry>
        </mxCell>
        <mxCell id="pIoMoX_XAeHMWqrU3urw-1" value="Sensor de peso" style="rounded=0;whiteSpace=wrap;html=1;fillColor=#dae8fc;strokeColor=#6c8ebf;" vertex="1" parent="1">
          <mxGeometry x="120" y="70" width="60" height="30" as="geometry" />
        </mxCell>
        <mxCell id="pIoMoX_XAeHMWqrU3urw-26" style="edgeStyle=orthogonalEdgeStyle;rounded=0;orthogonalLoop=1;jettySize=auto;html=1;exitX=1;exitY=0.5;exitDx=0;exitDy=0;entryX=0;entryY=0.5;entryDx=0;entryDy=0;" edge="1" parent="1" source="pIoMoX_XAeHMWqrU3urw-2" target="pIoMoX_XAeHMWqrU3urw-25">
          <mxGeometry relative="1" as="geometry" />
        </mxCell>
        <mxCell id="pIoMoX_XAeHMWqrU3urw-2" value="Cerebro (ESP32)" style="rounded=0;whiteSpace=wrap;html=1;fillColor=#d5e8d4;strokeColor=#82b366;" vertex="1" parent="1">
          <mxGeometry x="354" y="310" width="120" height="60" as="geometry" />
        </mxCell>
        <mxCell id="pIoMoX_XAeHMWqrU3urw-6" style="edgeStyle=orthogonalEdgeStyle;rounded=0;orthogonalLoop=1;jettySize=auto;html=1;exitX=1;exitY=0.5;exitDx=0;exitDy=0;entryX=0;entryY=0.5;entryDx=0;entryDy=0;" edge="1" parent="1" source="pIoMoX_XAeHMWqrU3urw-4" target="pIoMoX_XAeHMWqrU3urw-2">
          <mxGeometry relative="1" as="geometry" />
        </mxCell>
        <mxCell id="pIoMoX_XAeHMWqrU3urw-4" value="Sensor de temperatura" style="rounded=0;whiteSpace=wrap;html=1;fillColor=#dae8fc;strokeColor=#6c8ebf;" vertex="1" parent="1">
          <mxGeometry x="120" y="200" width="70" height="30" as="geometry" />
        </mxCell>
        <mxCell id="pIoMoX_XAeHMWqrU3urw-11" style="edgeStyle=orthogonalEdgeStyle;rounded=0;orthogonalLoop=1;jettySize=auto;html=1;entryX=0.5;entryY=1;entryDx=0;entryDy=0;" edge="1" parent="1" source="pIoMoX_XAeHMWqrU3urw-8" target="pIoMoX_XAeHMWqrU3urw-2">
          <mxGeometry relative="1" as="geometry" />
        </mxCell>
        <mxCell id="pIoMoX_XAeHMWqrU3urw-16" style="edgeStyle=orthogonalEdgeStyle;rounded=0;orthogonalLoop=1;jettySize=auto;html=1;exitX=0;exitY=0.5;exitDx=0;exitDy=0;entryX=0;entryY=0.5;entryDx=0;entryDy=0;" edge="1" parent="1" source="pIoMoX_XAeHMWqrU3urw-8" target="pIoMoX_XAeHMWqrU3urw-13">
          <mxGeometry relative="1" as="geometry" />
        </mxCell>
        <mxCell id="pIoMoX_XAeHMWqrU3urw-17" style="edgeStyle=orthogonalEdgeStyle;rounded=0;orthogonalLoop=1;jettySize=auto;html=1;exitX=0;exitY=0.5;exitDx=0;exitDy=0;entryX=0;entryY=0.5;entryDx=0;entryDy=0;" edge="1" parent="1" source="pIoMoX_XAeHMWqrU3urw-8" target="pIoMoX_XAeHMWqrU3urw-4">
          <mxGeometry relative="1" as="geometry" />
        </mxCell>
        <mxCell id="pIoMoX_XAeHMWqrU3urw-18" style="edgeStyle=orthogonalEdgeStyle;rounded=0;orthogonalLoop=1;jettySize=auto;html=1;exitX=0;exitY=0.5;exitDx=0;exitDy=0;entryX=0;entryY=0.5;entryDx=0;entryDy=0;" edge="1" parent="1" source="pIoMoX_XAeHMWqrU3urw-8" target="pIoMoX_XAeHMWqrU3urw-12">
          <mxGeometry relative="1" as="geometry" />
        </mxCell>
        <mxCell id="pIoMoX_XAeHMWqrU3urw-19" style="edgeStyle=orthogonalEdgeStyle;rounded=0;orthogonalLoop=1;jettySize=auto;html=1;exitX=0;exitY=0.5;exitDx=0;exitDy=0;entryX=0;entryY=0.5;entryDx=0;entryDy=0;" edge="1" parent="1" source="pIoMoX_XAeHMWqrU3urw-8" target="pIoMoX_XAeHMWqrU3urw-1">
          <mxGeometry relative="1" as="geometry" />
        </mxCell>
        <mxCell id="pIoMoX_XAeHMWqrU3urw-27" style="edgeStyle=orthogonalEdgeStyle;rounded=0;orthogonalLoop=1;jettySize=auto;html=1;exitX=1;exitY=0.5;exitDx=0;exitDy=0;entryX=0.5;entryY=1;entryDx=0;entryDy=0;" edge="1" parent="1" source="pIoMoX_XAeHMWqrU3urw-8" target="pIoMoX_XAeHMWqrU3urw-25">
          <mxGeometry relative="1" as="geometry" />
        </mxCell>
        <mxCell id="pIoMoX_XAeHMWqrU3urw-8" value="Regulador de voltaje y corriente" style="rounded=0;whiteSpace=wrap;html=1;fillColor=#fff2cc;strokeColor=#d6b656;" vertex="1" parent="1">
          <mxGeometry x="364" y="450" width="100" height="40" as="geometry" />
        </mxCell>
        <mxCell id="pIoMoX_XAeHMWqrU3urw-10" style="edgeStyle=orthogonalEdgeStyle;rounded=0;orthogonalLoop=1;jettySize=auto;html=1;entryX=0.5;entryY=1;entryDx=0;entryDy=0;" edge="1" parent="1" source="pIoMoX_XAeHMWqrU3urw-9" target="pIoMoX_XAeHMWqrU3urw-8">
          <mxGeometry relative="1" as="geometry" />
        </mxCell>
        <mxCell id="pIoMoX_XAeHMWqrU3urw-9" value="Conexion directa" style="rounded=0;whiteSpace=wrap;html=1;fillColor=#fff2cc;strokeColor=#d6b656;" vertex="1" parent="1">
          <mxGeometry x="369" y="540" width="90" height="30" as="geometry" />
        </mxCell>
        <mxCell id="pIoMoX_XAeHMWqrU3urw-15" style="edgeStyle=orthogonalEdgeStyle;rounded=0;orthogonalLoop=1;jettySize=auto;html=1;exitX=1;exitY=0.5;exitDx=0;exitDy=0;entryX=0;entryY=0.5;entryDx=0;entryDy=0;" edge="1" parent="1" source="pIoMoX_XAeHMWqrU3urw-12" target="pIoMoX_XAeHMWqrU3urw-2">
          <mxGeometry relative="1" as="geometry" />
        </mxCell>
        <mxCell id="pIoMoX_XAeHMWqrU3urw-12" value="Sensor de ph " style="rounded=0;whiteSpace=wrap;html=1;fillColor=#dae8fc;strokeColor=#6c8ebf;" vertex="1" parent="1">
          <mxGeometry x="120" y="140" width="60" height="30" as="geometry" />
        </mxCell>
        <mxCell id="pIoMoX_XAeHMWqrU3urw-14" style="edgeStyle=orthogonalEdgeStyle;rounded=0;orthogonalLoop=1;jettySize=auto;html=1;exitX=1;exitY=0.5;exitDx=0;exitDy=0;entryX=0;entryY=0.5;entryDx=0;entryDy=0;" edge="1" parent="1" source="pIoMoX_XAeHMWqrU3urw-13" target="pIoMoX_XAeHMWqrU3urw-2">
          <mxGeometry relative="1" as="geometry" />
        </mxCell>
        <mxCell id="pIoMoX_XAeHMWqrU3urw-13" value="Sensor de humedad" style="rounded=0;whiteSpace=wrap;html=1;fillColor=#dae8fc;strokeColor=#6c8ebf;" vertex="1" parent="1">
          <mxGeometry x="120" y="240" width="60" height="30" as="geometry" />
        </mxCell>
        <mxCell id="pIoMoX_XAeHMWqrU3urw-22" style="edgeStyle=orthogonalEdgeStyle;rounded=0;orthogonalLoop=1;jettySize=auto;html=1;exitX=0.5;exitY=1;exitDx=0;exitDy=0;entryX=0.5;entryY=0;entryDx=0;entryDy=0;" edge="1" parent="1" source="pIoMoX_XAeHMWqrU3urw-20" target="pIoMoX_XAeHMWqrU3urw-21">
          <mxGeometry relative="1" as="geometry" />
        </mxCell>
        <mxCell id="pIoMoX_XAeHMWqrU3urw-20" value="Usuario" style="rounded=0;whiteSpace=wrap;html=1;fillColor=#f5f5f5;fontColor=#333333;strokeColor=#666666;" vertex="1" parent="1">
          <mxGeometry x="374" y="60" width="80" height="30" as="geometry" />
        </mxCell>
        <mxCell id="pIoMoX_XAeHMWqrU3urw-23" style="edgeStyle=orthogonalEdgeStyle;rounded=0;orthogonalLoop=1;jettySize=auto;html=1;exitX=0.5;exitY=1;exitDx=0;exitDy=0;entryX=0.5;entryY=0;entryDx=0;entryDy=0;" edge="1" parent="1" source="pIoMoX_XAeHMWqrU3urw-21" target="pIoMoX_XAeHMWqrU3urw-2">
          <mxGeometry relative="1" as="geometry" />
        </mxCell>
        <mxCell id="pIoMoX_XAeHMWqrU3urw-21" value="Display oled touch" style="rounded=0;whiteSpace=wrap;html=1;fillColor=#f5f5f5;fontColor=#333333;strokeColor=#666666;" vertex="1" parent="1">
          <mxGeometry x="372" y="170" width="84" height="30" as="geometry" />
        </mxCell>
        <mxCell id="pIoMoX_XAeHMWqrU3urw-29" style="edgeStyle=orthogonalEdgeStyle;rounded=0;orthogonalLoop=1;jettySize=auto;html=1;exitX=1;exitY=0.5;exitDx=0;exitDy=0;" edge="1" parent="1" source="pIoMoX_XAeHMWqrU3urw-25" target="pIoMoX_XAeHMWqrU3urw-28">
          <mxGeometry relative="1" as="geometry" />
        </mxCell>
        <mxCell id="pIoMoX_XAeHMWqrU3urw-25" value="Bomba de agua" style="rounded=0;whiteSpace=wrap;html=1;" vertex="1" parent="1">
          <mxGeometry x="550" y="325" width="90" height="30" as="geometry" />
        </mxCell>
        <mxCell id="pIoMoX_XAeHMWqrU3urw-28" value="Regado de plantas" style="rounded=0;whiteSpace=wrap;html=1;" vertex="1" parent="1">
          <mxGeometry x="710" y="160" width="90" height="30" as="geometry" />
        </mxCell>
      </root>
    </mxGraphModel>
  </diagram>
</mxfile>
